<svg xmlns="http://www.w3.org/2000/svg" xmlns:xlink="http://www.w3.org/1999/xlink" width="1080" zoomAndPan="magnify" viewBox="0 0 810 809.999993" height="1080" preserveAspectRatio="xMidYMid meet" version="1.0"><defs><clipPath id="7a0f666e34"><path d="M 104.585938 103 L 705 103 L 705 792.105469 L 104.585938 792.105469 Z M 104.585938 103 " clip-rule="nonzero"/></clipPath><clipPath id="81b93fb26c"><path d="M 343 18.105469 L 496 18.105469 L 496 105 L 343 105 Z M 343 18.105469 " clip-rule="nonzero"/></clipPath><clipPath id="4c126c50dc"><path d="M 342 18.105469 L 479 18.105469 L 479 102 L 342 102 Z M 342 18.105469 " clip-rule="nonzero"/></clipPath><clipPath id="99aa737797"><path d="M 342 18.105469 L 480 18.105469 L 480 102 L 342 102 Z M 342 18.105469 " clip-rule="nonzero"/></clipPath></defs><path fill="#8e5f31" d="M 650.949219 749.445312 C 643.214844 751.507812 632.621094 753.066406 624.769531 754.621094 C 624.765625 754.621094 613.074219 758.066406 608.148438 759.796875 C 603.046875 761.589844 596.328125 764.222656 591.371094 766.382812 C 582.960938 770.054688 572.527344 776.722656 563.871094 779.761719 C 553.167969 783.519531 538.171875 786.253906 526.949219 787.917969 C 513.285156 789.945312 494.84375 791.109375 481.03125 791.328125 C 469.125 791.511719 453.160156 791.371094 441.367188 789.695312 C 431.738281 788.328125 419.324219 784.289062 409.851562 782.085938 C 402.628906 780.40625 393.066406 777.761719 385.730469 776.671875 C 371.933594 774.621094 353.277344 774.085938 339.332031 773.65625 C 324.398438 773.199219 304.464844 774.050781 289.523438 773.859375 C 271.648438 773.632812 247.769531 773.636719 229.964844 772.0625 C 216.054688 770.832031 197.386719 769.023438 183.898438 765.40625 C 172.074219 762.238281 156.199219 757.089844 145.964844 750.375 C 142.132812 747.863281 137.796875 743.421875 134.785156 739.96875 C 133.015625 737.9375 130.199219 735.292969 129.539062 732.679688 C 128.839844 729.914062 129.652344 725.863281 130.800781 723.253906 C 132.210938 720.058594 137.550781 717.804688 138.378906 714.414062 C 139.179688 711.128906 136.695312 706.703125 135.855469 703.433594 C 132.1875 689.207031 125.917969 670.621094 122.042969 656.453125 C 119.660156 647.722656 115.765625 636.191406 114.601562 627.21875 C 113.929688 622.0625 114.183594 615.097656 114.226562 609.902344 C 114.382812 592.007812 119.292969 568.0625 116.980469 550.316406 C 116.804688 548.972656 116.277344 547.226562 115.847656 545.941406 C 114.066406 540.636719 109.863281 534.25 108.359375 528.863281 C 106.59375 522.554688 105.285156 513.746094 105.578125 507.199219 C 105.996094 497.777344 110.304688 485.699219 112.730469 476.585938 C 114.257812 470.847656 117.746094 463.515625 118.347656 457.609375 C 118.945312 451.714844 116.960938 443.847656 116.652344 437.929688 C 116.210938 429.367188 115.683594 417.914062 116.230469 409.359375 C 116.796875 400.460938 118.390625 388.617188 120.460938 379.945312 C 123.828125 365.84375 131.039062 347.792969 136.34375 334.300781 C 143.066406 317.195312 153.707031 295.082031 161.113281 278.257812 C 166.089844 266.960938 172.351562 251.730469 177.644531 240.578125 C 180.191406 235.214844 183.347656 227.894531 186.597656 222.925781 C 190.027344 217.679688 195.484375 211.261719 199.894531 206.808594 C 208.847656 197.761719 222.210938 187.113281 232.703125 179.910156 C 252.445312 166.355469 281.042969 151.796875 302.542969 141.261719 C 318.347656 133.519531 339.96875 124.308594 356.378906 117.949219 C 365.054688 114.582031 376.554688 109.585938 385.675781 107.730469 C 406.71875 103.4375 435.742188 105.5625 457.199219 104.632812 C 464.757812 106.597656 475.054688 108.515625 482.394531 111.179688 C 499.992188 117.5625 522.386719 129.015625 538.339844 138.816406 C 553.164062 147.925781 571.863281 161.902344 584.804688 173.535156 C 593.363281 181.230469 604.050781 192.367188 611.097656 201.464844 C 618.492188 211.015625 627.277344 224.671875 632.554688 235.535156 C 637.519531 245.753906 643.195312 260.027344 645.320312 271.1875 C 647.054688 280.300781 645.589844 292.855469 646.523438 302.085938 C 647.3125 309.898438 649.3125 320.195312 650.695312 327.925781 C 652.964844 340.578125 656.523438 357.347656 659.046875 369.953125 C 662.570312 387.546875 666.929688 411.074219 670.886719 428.578125 C 672.902344 437.492188 673.199219 450.503906 678.199219 458.152344 C 680.117188 461.082031 684.867188 463.027344 687.039062 465.773438 C 692.617188 472.835938 697.253906 484.289062 699.839844 492.910156 C 701.296875 497.765625 702.304688 504.53125 702.5 509.597656 C 702.925781 520.664062 699.566406 535.277344 698.792969 546.320312 C 698.296875 553.410156 696.976562 562.929688 697.804688 569.988281 C 698.328125 574.40625 700.546875 580.003906 701.648438 584.3125 C 702.25 586.667969 703.328125 589.761719 703.570312 592.175781 C 704.664062 603.105469 702.648438 617.878906 700.589844 628.664062 C 698.5625 639.292969 694.386719 653.234375 690.09375 663.164062 C 686.792969 670.796875 681.042969 680.363281 676.4375 687.289062 C 675.273438 689.039062 672.878906 690.890625 672.234375 692.894531 C 671.492188 695.195312 671.503906 698.734375 672.46875 700.953125 C 673.59375 703.542969 677.125 705.617188 679.238281 707.492188 C 683.207031 711.007812 689.480469 714.609375 693.011719 718.5625 C 693.980469 719.648438 695.636719 721.117188 695.742188 722.570312 C 695.96875 725.707031 692.375 729.167969 690.285156 731.523438 C 687.648438 734.496094 683.277344 737.695312 679.800781 739.621094 C 671.804688 744.054688 659.785156 747.085938 650.949219 749.445312 M 457.199219 104.632812 Z M 457.199219 104.632812 " fill-opacity="1" fill-rule="evenodd"/><g clip-path="url(#7a0f666e34)"><path stroke-linecap="round" transform="matrix(1.29946, 0, 0, 1.299966, -372.960271, -75.103855)" fill="none" stroke-linejoin="round" d="M 767.803416 638.266474 C 773.84559 637.07053 781.998015 635.87158 787.950007 634.285001 C 794.749706 632.47005 803.999342 630.138259 810.152739 626.727714 C 812.82813 625.246305 816.191907 622.785304 818.220995 620.498586 C 819.829235 618.686641 822.594807 616.024312 822.420456 613.611389 C 822.339292 612.493572 821.064724 611.363735 820.319222 610.528377 C 817.601747 607.487433 812.774021 604.716928 809.719867 602.012531 C 808.093591 600.570186 805.376116 598.974592 804.510372 596.982353 C 803.767876 595.275578 803.758857 592.553152 804.330008 590.783274 C 804.826007 589.241768 806.66872 587.817452 807.564525 586.471264 C 811.108665 581.143602 815.53358 573.784637 818.073698 567.913091 C 821.377354 560.274673 824.590829 549.550236 826.150972 541.373943 C 827.735164 533.077455 829.286289 521.712978 828.444593 513.305308 C 828.258217 511.448289 827.428546 509.06842 826.965613 507.256474 C 826.117905 503.942085 824.410465 499.636085 824.007654 496.237559 C 823.37037 490.807731 824.386417 483.484825 824.768186 478.030958 C 825.363385 469.536147 827.948594 458.294871 827.620933 449.78203 C 827.470631 445.884694 826.695068 440.680232 825.573809 436.94516 C 823.5838 430.313378 820.015611 421.503053 815.722962 416.070221 C 814.051595 413.957786 810.39623 412.461353 808.920256 410.207689 C 805.072504 404.324123 804.844044 394.31485 803.292919 387.457701 C 800.247783 373.99281 796.893025 355.894385 794.181562 342.360381 C 792.239649 332.663616 789.501132 319.763642 787.754613 310.030819 C 786.690469 304.08415 785.151368 296.163272 784.544145 290.153501 C 783.825697 283.052957 784.952968 273.395255 783.618279 266.384858 C 781.982985 257.7999 777.615185 246.820049 773.794487 238.959268 C 769.733305 230.602682 762.972684 220.097602 757.282219 212.750657 C 751.859293 205.752279 743.634723 197.185351 737.048453 191.265727 C 727.089388 182.317178 712.699396 171.565698 701.291412 164.558305 C 689.014677 157.019047 671.780956 148.208723 658.238671 143.29874 C 652.590291 141.249409 644.666326 139.77401 638.849607 138.262552 C 622.337339 138.977715 600.00234 137.343057 583.808714 140.645427 C 576.789572 142.072747 567.939742 145.915996 561.263291 148.506207 C 548.634847 153.39816 531.996325 160.48368 519.833821 166.439363 C 503.288486 174.543539 481.281147 185.742747 466.088538 196.1697 C 458.01427 201.710708 447.730551 209.902026 440.84067 216.861341 C 437.446832 220.28691 433.247371 225.223937 430.608053 229.259498 C 428.107015 233.081712 425.678121 238.712868 423.718172 242.838575 C 419.644966 251.417523 414.826257 263.133572 410.996541 271.8237 C 405.297058 284.765742 397.108561 301.776398 391.935137 314.934792 C 387.852913 325.313666 382.303733 339.199241 379.712512 350.046878 C 378.119302 356.717724 376.892831 365.828536 376.456953 372.673665 C 376.036105 379.254364 376.441922 388.064688 376.781607 394.651397 C 377.019085 399.203799 378.546162 405.255638 378.086235 409.79001 C 377.623303 414.333397 374.938894 419.973567 373.763526 424.387743 C 371.896765 431.398141 368.581085 440.689247 368.259437 447.937031 C 368.033983 452.973219 369.041012 459.749235 370.399749 464.602125 C 371.557081 468.745862 374.791598 473.65885 376.162359 477.739484 C 376.493025 478.728092 376.898843 480.071275 377.034116 481.104956 C 378.813701 494.756151 375.035088 513.176098 374.914846 526.941478 C 374.881779 530.937976 374.686386 536.295687 375.203427 540.262136 C 376.099232 547.164357 379.09627 556.034779 380.929965 562.750698 C 383.911973 573.649418 388.736693 587.946663 391.55938 598.890455 C 392.205682 601.405544 394.117534 604.81008 393.501293 607.337188 C 392.864009 609.945429 388.75473 611.679248 387.669543 614.137244 C 386.785763 616.144507 386.160503 619.260574 386.698587 621.388033 C 387.206611 623.398301 389.373977 625.432608 390.735721 626.995149 C 393.05339 629.651467 396.390113 633.068022 399.339054 635.000164 C 407.214922 640.165562 419.431536 644.126001 428.530868 646.562963 C 438.910781 649.345487 453.276725 650.736749 463.981292 651.683287 C 477.682897 652.894256 496.05892 652.891251 509.814635 653.065535 C 521.3128 653.212774 536.652706 652.557709 548.14486 652.909281 C 558.876482 653.239818 573.233407 653.651487 583.850799 655.229052 C 589.496173 656.067415 596.854999 658.101723 602.413197 659.393824 C 609.702884 661.088579 619.256131 664.19563 626.66606 665.24734 C 635.741345 666.536436 648.027098 666.644612 657.189558 666.503382 C 667.818973 666.335109 682.010566 665.439653 692.525751 663.880117 C 701.162151 662.600036 712.702402 660.496616 720.938996 657.605917 C 727.600418 655.268116 735.629594 650.138776 742.101634 647.314184 C 745.916319 645.652482 751.086736 643.62719 755.012646 642.247947 C 758.803283 640.916783 767.80041 638.266474 767.803416 638.266474 " stroke="#8e5f31" stroke-width="1" stroke-opacity="1" stroke-miterlimit="4"/></g><path fill="#9c6934" d="M 434.761719 786.480469 C 425.027344 785.785156 412.601562 781.238281 403.105469 778.992188 C 403.105469 778.992188 402.214844 777.363281 401.921875 776.625 C 401.050781 774.421875 401.226562 770.914062 399.820312 769.003906 C 397.726562 766.15625 392.957031 764.351562 389.707031 762.960938 C 384.148438 760.578125 375.4375 760.894531 370.203125 757.863281 C 366.863281 755.933594 362.605469 752.40625 360.972656 748.914062 C 360.007812 746.847656 361.046875 743.445312 360.132812 741.355469 C 357.417969 735.160156 348.863281 730.300781 344.191406 725.410156 C 341.359375 722.445312 338.550781 717.3125 334.960938 715.335938 C 328.433594 711.742188 317.785156 711.472656 310.351562 711.980469 C 295.628906 712.980469 277.574219 722.558594 263.363281 726.527344 C 257.546875 728.15625 249.644531 733.195312 243.847656 731.492188 C 233.101562 728.332031 226.105469 712.027344 220.574219 702.28125 C 219.71875 700.777344 217.609375 698.546875 218.328125 696.972656 C 219.175781 695.121094 223.792969 696.871094 224.863281 695.132812 C 226.496094 692.472656 222.933594 688.105469 222.003906 685.125 C 220.367188 679.871094 218.636719 672.636719 216.082031 667.765625 C 214.128906 664.042969 210.871094 659.351562 207.839844 656.441406 C 201.445312 650.304688 188.976562 647.109375 182.816406 640.738281 C 178.109375 635.875 173.570312 627.738281 171.214844 621.394531 C 167.890625 612.453125 162.804688 598.898438 166.210938 589.988281 C 167.726562 586.019531 172.734375 582.269531 176.445312 580.203125 C 184.4375 575.761719 197.714844 577.117188 206.246094 573.832031 C 207.644531 573.292969 209.828125 572.75 210.664062 571.507812 C 212.644531 568.566406 210.992188 563.21875 210.664062 559.691406 C 209.746094 549.789062 205.847656 536.996094 203.9375 527.238281 C 200.988281 512.167969 196.164062 492.175781 194.722656 476.886719 C 193.070312 459.390625 193.425781 435.851562 194.449219 418.308594 C 195.363281 402.679688 197.9375 381.914062 200.691406 366.507812 C 201.425781 362.394531 201.972656 356.707031 203.757812 352.929688 C 210.316406 339.042969 231.484375 328.542969 237.460938 314.394531 C 239.816406 308.820312 239.597656 300.425781 240.140625 294.398438 C 241.03125 284.523438 240.132812 271.195312 241.53125 261.378906 C 242.710938 253.109375 245.515625 242.269531 248.09375 234.324219 C 252.210938 221.640625 258.023438 204.515625 265.285156 193.332031 C 272.585938 182.085938 285.390625 169.09375 295.910156 160.777344 C 305.484375 153.210938 320.554688 146.515625 331.121094 140.402344 C 331.117188 140.402344 323.183594 147.777344 320.476562 151.519531 C 318.9375 153.648438 317.519531 156.886719 316.25 159.191406 C 316.253906 159.191406 322.839844 157.421875 325.484375 156.214844 C 339.179688 149.964844 354.523438 136.414062 367.429688 128.660156 C 371.6875 126.101562 377.171875 122.125 381.902344 120.597656 C 400.84375 114.492188 428.253906 117.777344 448.121094 116.566406 C 470.070312 126.859375 501.746094 136.527344 521.289062 150.878906 C 534.230469 160.378906 548.789062 176.648438 558.078125 189.746094 C 567.875 203.558594 578.253906 223.984375 583.863281 239.960938 C 591.113281 260.605469 594.929688 289.855469 597.917969 311.53125 C 601.015625 334.019531 599.980469 364.613281 603.933594 386.96875 C 606.183594 399.703125 611.140625 416.289062 615.035156 428.621094 C 617.847656 437.527344 623.128906 448.890625 625.667969 457.875 C 628.351562 467.371094 631.730469 480.246094 632.234375 490.097656 C 632.800781 501.121094 631.878906 516.199219 628.484375 526.699219 C 627.308594 530.335938 623.148438 534.191406 622.542969 537.960938 C 621.675781 543.339844 624.460938 550.5625 625.980469 555.792969 C 628.691406 565.132812 635.292969 576.539062 638.175781 585.828125 C 640.1875 592.304688 643.777344 601.125 643.152344 607.882812 C 642.492188 615.039062 637.988281 624.164062 633.609375 629.863281 C 631.074219 633.160156 624.367188 634.828125 622.957031 638.746094 C 621.578125 642.566406 623.953125 648.269531 625.398438 652.066406 C 627.492188 657.578125 635.011719 662.878906 635.828125 668.71875 C 636.308594 672.136719 635.386719 677.292969 633.125 679.894531 C 628.5 685.21875 617.558594 685.332031 610.667969 686.828125 C 604.097656 688.253906 594.121094 686.085938 588.449219 689.695312 C 586.332031 691.042969 584.617188 694.175781 583.429688 696.386719 C 581.289062 700.386719 580.726562 706.695312 578.652344 710.726562 C 575.863281 716.152344 569.246094 721.59375 566.542969 727.0625 C 565.25 729.6875 563.363281 733.457031 563.636719 736.367188 C 563.832031 738.40625 566.640625 740.425781 566.691406 742.476562 C 566.753906 745.128906 564.703125 748.515625 562.910156 750.472656 C 556.566406 757.410156 543.277344 760.261719 534.714844 764.140625 C 524.648438 768.699219 511.398438 775.433594 500.757812 778.414062 C 488.097656 781.964844 470.453125 783.28125 457.382812 784.710938 C 450.617188 785.449219 441.550781 786.96875 434.761719 786.480469 M 448.121094 116.566406 Z M 448.121094 116.566406 " fill-opacity="1" fill-rule="evenodd"/><path stroke-linecap="round" transform="matrix(1.29946, 0, 0, 1.299966, -372.960271, -75.103855)" fill="none" stroke-linejoin="round" d="M 597.221738 657.013954 C 604.529461 658.741763 614.091726 662.23945 621.582819 662.77432 C 626.807345 663.14993 633.784402 661.98103 638.990892 661.413107 C 649.049157 660.313318 662.627514 659.300672 672.370143 656.569231 C 680.55864 654.276504 690.755184 649.096081 698.501791 645.58938 C 705.091067 642.605529 715.317671 640.411962 720.199507 635.075286 C 721.579286 633.569838 723.157466 630.964602 723.109369 628.924285 C 723.07029 627.34672 720.908936 625.793195 720.758633 624.224644 C 720.548209 621.986005 722.000134 619.08629 722.995139 617.067007 C 725.07533 612.860168 730.16759 608.674362 732.313914 604.500576 C 733.91013 601.399535 734.343002 596.546645 735.990321 593.469642 C 736.904162 591.768877 738.223821 589.358959 739.853104 588.322273 C 744.217898 585.545759 751.895366 587.213471 756.951553 586.116687 C 762.254236 584.965816 770.6742 584.878675 774.233371 580.783016 C 775.973878 578.781762 776.683307 574.815313 776.313562 572.186038 C 775.685296 567.693735 769.898638 563.616105 768.287391 559.376212 C 767.175151 556.455463 765.347468 552.06833 766.408606 549.129553 C 767.493793 546.115652 772.655191 544.832566 774.606122 542.296443 C 777.975911 537.912315 781.441894 530.892903 781.949918 525.387953 C 782.430887 520.189501 779.668321 513.40447 778.120202 508.42237 C 775.901732 501.276752 770.821497 492.502487 768.735294 485.317805 C 767.565938 481.294264 765.42262 475.738231 766.089964 471.600503 C 766.555903 468.700789 769.757353 465.734967 770.662176 462.937419 C 773.274439 454.860287 773.983868 443.261429 773.54799 434.781642 C 773.160209 427.203321 770.55997 417.299219 768.494809 409.994342 C 766.540873 403.083106 762.476684 394.341894 760.312324 387.490755 C 757.315285 378.004332 753.5006 365.245588 751.769111 355.449662 C 748.726982 338.252703 749.523587 314.71844 747.139784 297.419314 C 744.840151 280.745205 741.903234 258.244623 736.323993 242.363803 C 732.007296 230.073822 724.020204 214.361276 716.481015 203.736001 C 709.332613 193.66062 698.12904 181.145272 688.169975 173.837391 C 673.130675 162.797442 648.754563 155.360351 631.863532 147.442477 C 616.574729 148.373992 595.481231 145.846883 580.904863 150.543519 C 577.264529 151.718429 573.044026 154.777403 569.767424 156.745603 C 559.835414 162.7103 548.027624 173.134248 537.48839 177.942065 C 535.45329 178.870574 530.385079 180.231787 530.382073 180.231787 C 531.359041 178.458905 532.45024 175.967855 533.634626 174.330192 C 535.717823 171.451512 541.823124 165.778288 541.82613 165.778288 C 533.694747 170.480934 522.097381 175.631308 514.729537 181.451771 C 506.634227 187.849172 496.780374 197.843421 491.162054 206.494486 C 485.573795 215.097473 481.100783 228.270891 477.9324 238.027754 C 475.948403 244.139691 473.790054 252.478248 472.882225 258.83959 C 471.806057 266.390867 472.49745 276.643536 471.812069 284.239887 C 471.394227 288.876425 471.562566 295.333924 469.749914 299.621895 C 465.150648 310.50559 448.860828 318.582722 443.813659 329.26509 C 442.439892 332.170814 442.019044 336.545928 441.453905 339.710072 C 439.334635 351.56134 437.353644 367.535311 436.650227 379.557858 C 435.86264 393.052798 435.589089 411.160238 436.860651 424.61912 C 437.969886 436.380241 441.682365 451.759245 443.951938 463.352093 C 445.4219 470.858297 448.421944 480.699297 449.128367 488.316681 C 449.380876 491.030093 450.652438 495.143781 449.128367 497.40646 C 448.485071 498.362013 446.804686 498.779692 445.728517 499.194366 C 439.16329 501.721475 428.945704 500.67878 422.795313 504.095335 C 419.939559 505.684919 416.085795 508.569609 414.919445 511.622573 C 412.298164 518.476716 416.212049 528.903669 418.770203 535.781851 C 420.582855 540.661785 424.075893 546.920962 427.698191 550.662044 C 432.438742 555.563012 442.034074 558.021009 446.954988 562.741684 C 449.287688 564.980323 451.794739 568.589191 453.297767 571.452846 C 455.263728 575.199939 456.595411 580.764986 457.854949 584.806557 C 458.57039 587.099285 461.311914 590.458747 460.055382 592.505074 C 459.231723 593.842248 455.678564 592.496059 455.02625 593.920375 C 454.473136 595.131344 456.096406 596.847133 456.754732 598.004014 C 461.011308 605.501203 466.395155 618.043595 474.664817 620.474547 C 479.125804 621.784677 485.207057 617.908375 489.683075 616.655338 C 500.619108 613.602374 514.513101 606.234395 525.842928 605.465145 C 531.563453 605.07451 539.757963 605.281847 544.781083 608.046341 C 547.543649 609.566813 549.705004 613.515233 551.884394 615.795941 C 555.479638 619.558057 562.062902 623.296135 564.152111 628.061883 C 564.855528 629.669497 564.055917 632.286752 564.798413 633.876336 C 566.054944 636.562704 569.331546 639.276116 571.901724 640.760529 C 575.92984 643.09232 582.633346 642.848924 586.910964 644.681904 C 589.412003 645.751644 593.082398 647.139901 594.693644 649.330462 C 595.775825 650.799851 595.640552 653.498238 596.310903 655.192994 C 596.536357 655.760917 597.221738 657.013954 597.221738 657.013954 " stroke="#9c6934" stroke-width="1" stroke-opacity="1" stroke-miterlimit="4"/><path stroke-linecap="round" transform="matrix(1.29946, 0, 0, 1.299966, -372.960271, -75.103855)" fill-opacity="1" fill="#a87138" fill-rule="evenodd" stroke-linejoin="round" d="M 649.385835 148.485173 C 657.219618 150.759871 666.88409 156.30088 673.452323 161.138745 C 680.041599 165.98863 687.764158 173.927538 692.739181 180.4241 C 696.938642 185.905011 702.057956 193.798845 704.309492 200.325456 C 706.20932 205.830406 706.981876 213.709216 707.108131 219.529679 C 707.348615 230.737902 703.497857 245.455831 702.69524 256.637009 C 702.08501 265.182903 700.945715 276.67058 701.916671 285.183421 C 702.674198 291.806188 704.598074 300.658581 707.366652 306.72244 C 711.148271 314.994889 720.575264 323.438617 725.015209 331.37452 C 729.942136 340.187849 734.811947 352.841421 738.007385 362.417991 C 740.574557 370.110498 743.418287 380.594543 744.716903 388.599558 C 746.7009 400.808407 747.305117 417.377346 747.32616 429.745454 C 747.347202 440.412798 746.866233 454.698023 745.270017 465.248176 C 744.416297 470.89135 741.47938 478.088051 740.896205 483.770289 C 740.042485 492.066778 741.458338 503.223918 741.924276 511.55346 C 742.275985 517.797612 743.899256 526.10612 743.469389 532.350272 C 743.021487 538.885898 741.782992 547.834447 738.855093 553.693973 C 734.000312 563.411773 723.364884 574.24739 714.430884 580.425434 C 705.893684 586.330034 692.426551 590.945538 682.317183 593.310383 C 673.299014 595.416808 660.685601 597.315895 651.54719 595.810448 C 640.208345 593.941409 626.329382 586.269936 616.547675 580.233122 C 611.539584 577.141095 604.343085 573.003367 601.18372 568.036292 C 598.730778 564.175014 598.896111 557.5853 597.417131 553.25526 C 595.793861 548.501531 593.563367 542.059057 590.752704 537.894286 C 584.629367 528.822537 571.336586 521.133035 564.377565 512.683297 C 556.450594 503.055644 547.128813 489.007805 542.063608 477.616284 C 537.767953 467.955577 533.920201 454.181183 532.501343 443.706152 C 530.484279 428.840984 532.014361 408.651158 533.279911 393.701853 C 535.173727 371.318462 540.244944 341.696301 545.12678 319.769652 C 547.267092 310.166038 552.160952 297.849013 553.895446 288.164267 C 555.410499 279.70852 556.922545 268.211828 556.363419 259.641895 C 555.750183 250.218574 551.075765 238.235091 549.506604 228.922951 C 548.652884 223.850704 546.828208 217.00257 547.456473 211.894265 C 548.601781 202.58513 554.490645 190.968243 559.498735 183.035345 C 564.912643 174.456397 573.416777 163.106945 582.128328 157.911498 C 595.802879 149.762249 618.462532 150.209977 634.036911 146.907608 C 634.012862 146.919627 644.939878 147.196077 649.385835 148.485173 Z M 649.385835 148.485173 " stroke="#a87138" stroke-width="1" stroke-opacity="1" stroke-miterlimit="4"/><path stroke-linecap="round" transform="matrix(1.29946, 0, 0, 1.299966, -372.960271, -75.103855)" fill-opacity="1" fill="#8e5f31" fill-rule="evenodd" stroke-linejoin="round" d="M 590.957116 158.891091 C 589.766718 161.267955 588.167496 164.435105 586.992128 166.820984 C 583.189466 174.543539 578.722466 185.150785 574.495951 192.653984 C 570.491884 199.760538 565.180182 209.424249 559.718178 215.482098 C 559.171075 216.089085 558.482688 217.41424 557.674059 217.28503 C 554.331324 216.747155 557.129963 209.334103 557.674059 205.989665 C 558.338398 201.930065 560.487728 196.791711 562.120017 193.01457 C 563.833469 189.048121 566.581004 183.95484 568.847571 180.276861 C 571.54701 175.901747 575.457889 170.225519 578.821666 166.340202 C 581.157372 163.641815 584.7947 160.534763 587.352854 158.049723 C 588.435035 158.302133 590.957116 158.891091 590.957116 158.891091 Z M 590.957116 158.891091 " stroke="#8e5f31" stroke-width="1" stroke-opacity="1" stroke-miterlimit="4"/><path fill="#8e5f31" d="M 432.75 202.203125 C 432.84375 187.773438 432.433594 168.515625 433.0625 154.097656 C 433.410156 146.164062 434.484375 135.617188 435.09375 127.699219 C 432.5625 127.886719 426.660156 128.324219 426.660156 128.324219 C 426.707031 145.472656 423.582031 168.648438 426.816406 185.492188 C 427.820312 190.71875 432.75 202.203125 432.75 202.203125 Z M 432.75 202.203125 " fill-opacity="1" fill-rule="evenodd"/><path stroke-linecap="round" transform="matrix(1.29946, 0, 0, 1.299966, -372.960271, -75.103855)" fill="none" stroke-linejoin="round" d="M 615.348258 156.487183 C 615.348258 156.487183 619.890409 156.150635 621.838334 156.006401 C 621.369389 162.097304 620.542724 170.210494 620.275184 176.313417 C 619.791209 187.404449 620.106845 202.218534 620.0347 213.318581 C 620.0347 213.318581 616.241057 204.484218 615.4685 200.463681 C 612.979486 187.506615 615.384331 169.67863 615.348258 156.487183 M 621.838334 156.006401 L 621.838334 156.006401 M 620.0347 213.318581 L 620.0347 213.318581 " stroke="#8e5f31" stroke-width="1" stroke-opacity="1" stroke-miterlimit="4"/><path fill="#8e5f31" d="M 502.75 181.625 C 502.460938 179.996094 502.308594 177.769531 501.792969 176.199219 C 498.875 167.339844 492.160156 156.570312 486.632812 149.058594 C 481.914062 142.648438 474.117188 135.324219 468.441406 129.746094 C 464.140625 125.515625 458.054688 120.246094 453.601562 116.175781 C 452.355469 117.5625 449.453125 120.804688 449.453125 120.804688 C 450.601562 122.191406 452.078125 124.089844 453.28125 125.433594 C 457.054688 129.644531 462.789062 134.601562 466.527344 138.84375 C 469.59375 142.320312 473.214844 147.347656 476.101562 150.976562 C 481.484375 157.75 488.234375 167.15625 494.132812 173.484375 C 496.558594 176.085938 502.75 181.625 502.75 181.625 Z M 502.75 181.625 " fill-opacity="1" fill-rule="evenodd"/><path stroke-linecap="round" transform="matrix(1.29946, 0, 0, 1.299966, -372.960271, -75.103855)" fill="none" stroke-linejoin="round" d="M 632.888597 150.702778 C 632.888597 150.702778 635.122097 148.208723 636.081029 147.141989 C 639.507934 150.27308 644.19137 154.32667 647.501038 157.580961 C 651.868838 161.871937 657.868926 167.506097 661.500242 172.437114 C 665.753812 178.215509 670.921223 186.499978 673.166748 193.315058 C 673.563547 194.523022 673.680783 196.235807 673.903231 197.488844 C 673.903231 197.488844 669.138632 193.227917 667.271871 191.226663 C 662.732726 186.358749 657.53826 179.122985 653.395914 173.912513 C 651.174439 171.120975 648.387824 167.253687 646.02807 164.579339 C 643.151274 161.316033 638.738383 157.502834 635.834533 154.263567 C 634.908667 153.229887 633.772378 151.769512 632.888597 150.702778 M 636.081029 147.141989 L 636.081029 147.141989 M 673.903231 197.488844 L 673.903231 197.488844 " stroke="#8e5f31" stroke-width="1" stroke-opacity="1" stroke-miterlimit="4"/><path fill="#9c6934" d="M 459.230469 89.273438 C 459.644531 85.976562 459.304688 81.339844 460.605469 78.277344 C 461.785156 75.503906 464.972656 72.757812 466.886719 70.425781 C 473.769531 62.019531 485.261719 52.402344 490.238281 42.746094 C 492.347656 38.652344 496.511719 32.1875 494.554688 28.019531 C 492.59375 23.839844 484.890625 23.097656 480.425781 21.933594 C 469.972656 19.210938 455.316406 19.003906 444.511719 19.183594 C 432.902344 19.382812 417.488281 21.515625 406.050781 23.503906 C 395.679688 25.308594 382.09375 28.929688 371.902344 31.554688 C 365.511719 33.199219 356.648438 34.566406 350.707031 37.441406 C 348.460938 38.535156 345.898438 40.742188 343.839844 42.15625 C 344.253906 44.804688 344.140625 48.53125 345.214844 50.992188 C 348.164062 57.757812 356.351562 64.152344 361.5 69.445312 C 367.664062 75.773438 376.984375 83.082031 383.089844 89.46875 C 386.148438 92.667969 392.703125 100.65625 392.703125 100.660156 C 400.828125 101.542969 411.664062 104.503906 419.785156 103.605469 C 432.300781 102.21875 459.226562 89.273438 459.230469 89.273438 Z M 459.230469 89.273438 " fill-opacity="1" fill-rule="evenodd"/><g clip-path="url(#81b93fb26c)"><path stroke-linecap="round" transform="matrix(1.29946, 0, 0, 1.299966, -372.960271, -75.103855)" fill="none" stroke-linejoin="round" d="M 589.216609 135.206584 C 589.216609 135.203579 584.172447 129.058588 581.818704 126.597587 C 577.120238 121.684599 569.947788 116.062459 565.204231 111.194544 C 561.242248 107.122925 554.941554 102.203927 552.671981 96.999466 C 551.845316 95.106388 551.932491 92.239727 551.613849 90.202415 C 553.198041 89.114646 555.170014 87.416886 556.898497 86.575518 C 561.470708 84.363922 568.29145 83.312212 573.209359 82.047156 C 581.05216 80.027873 591.507224 77.242344 599.488304 75.854087 C 608.290037 74.3246 620.151936 72.683933 629.085936 72.530684 C 637.400688 72.392459 648.679412 72.551718 656.723619 74.646123 C 660.159541 75.541579 666.087485 76.112507 667.596525 79.327734 C 669.102559 82.533947 665.898103 87.507033 664.274833 90.656152 C 660.445117 98.084229 651.601299 105.482257 646.304627 111.948771 C 644.83166 113.742687 642.378717 115.855122 641.470888 117.98859 C 640.469872 120.344421 640.731399 123.91122 640.412757 126.447343 C 640.409751 126.447343 619.689003 136.405533 610.057599 137.472268 C 603.808007 138.163391 595.469207 135.885688 589.216609 135.206584 M 551.613849 90.202415 L 551.613849 90.202415 M 640.412757 126.447343 L 640.412757 126.447343 " stroke="#9c6934" stroke-width="1" stroke-opacity="1" stroke-miterlimit="4"/></g><g clip-path="url(#4c126c50dc)"><path fill="#a97239" d="M 444.910156 96.394531 C 445.402344 87.988281 443.78125 76.328125 446.546875 68.378906 C 448.5625 62.574219 454.5625 56.496094 457.992188 51.402344 C 463.988281 42.503906 483.726562 30.773438 477.953125 21.730469 C 476.953125 20.167969 473.613281 21.078125 471.949219 20.261719 C 471.949219 20.261719 457.597656 18.753906 451.433594 18.945312 C 420.425781 19.902344 375.480469 18.367188 349.273438 34.976562 C 346.980469 36.429688 344.128906 39.199219 343.3125 41.792969 C 342.214844 45.277344 343.441406 50.53125 344.945312 53.855469 C 348.992188 62.789062 360.898438 70.25 367.84375 77.171875 C 375.125 84.429688 392.371094 101.09375 392.375 101.097656 C 408.132812 99.6875 444.902344 96.394531 444.910156 96.394531 Z M 444.910156 96.394531 " fill-opacity="1" fill-rule="evenodd"/></g><g clip-path="url(#99aa737797)"><path stroke-linecap="round" transform="matrix(1.29946, 0, 0, 1.299966, -372.960271, -75.103855)" fill="none" stroke-linejoin="round" d="M 588.964101 135.543131 C 588.961095 135.540126 575.689355 122.721285 570.086066 117.138208 C 564.741298 111.813551 555.578838 106.07422 552.464563 99.202047 C 551.307232 96.644889 550.36333 92.603318 551.208032 89.92296 C 551.836298 87.927717 554.030719 85.797253 555.795274 84.679435 C 575.962907 71.902663 610.550592 73.083582 634.412668 72.347386 C 639.156225 72.200146 650.200476 73.360032 650.200476 73.360032 C 651.481056 73.988053 654.051235 73.287915 654.820785 74.489869 C 659.263737 81.446179 644.074133 90.46985 639.459837 97.314979 C 636.820519 101.233349 632.203216 105.908951 630.652091 110.374211 C 628.523803 116.489153 629.771317 125.458736 629.392554 131.925249 C 629.386542 131.925249 601.090532 134.458367 588.964101 135.543131 M 629.392554 131.925249 L 629.392554 131.925249 " stroke="#a97239" stroke-width="1" stroke-opacity="1" stroke-miterlimit="4"/></g><path fill="#8e5f31" d="M 435.753906 45.070312 C 433.84375 51.253906 430.121094 59.253906 429.382812 65.683594 C 428.875 70.09375 429.855469 76.03125 430.230469 80.453125 C 430.546875 84.191406 429.125 90.078125 431.613281 92.882812 C 432.179688 93.523438 433.484375 94.292969 434.265625 93.945312 C 435.1875 93.535156 435.152344 91.75 435.328125 90.757812 C 436.542969 83.980469 433.578125 74.566406 434.90625 67.808594 C 435.742188 63.539062 438.457031 58.285156 440.386719 54.386719 C 441.875 51.371094 444.335938 47.605469 446.027344 44.699219 C 456.257812 43.789062 470.566406 45.417969 480.125 41.667969 C 483.890625 40.191406 490.066406 37.816406 491.15625 33.917969 C 491.667969 32.078125 490.503906 29.265625 489.21875 27.855469 C 486.140625 24.46875 479.261719 23.730469 474.738281 23.050781 C 469.65625 22.292969 462.757812 23.378906 457.621094 23.515625 C 457.621094 23.515625 455.113281 24.539062 454.039062 24.984375 C 449.203125 27.011719 443.09375 30.742188 437.972656 31.875 C 433.261719 32.917969 426.71875 32.3125 421.890625 32.417969 C 411.660156 32.640625 397.988281 32.03125 387.773438 32.710938 C 382.945312 33.03125 376.503906 33.679688 371.746094 34.585938 C 364.890625 35.890625 354.394531 35.914062 349.292969 40.679688 C 348.480469 41.4375 347.59375 42.882812 347.636719 43.992188 C 347.71875 46.03125 349.867188 48.398438 351.542969 49.558594 C 353.25 50.738281 358.234375 51.28125 358.234375 51.28125 C 360.40625 53.375 363.410156 56.0625 365.480469 58.257812 C 371.207031 64.328125 378.355469 72.882812 383.367188 79.554688 C 387.125 84.5625 395.03125 96.863281 395.03125 96.867188 C 393.375 91.945312 391.597656 85.21875 389.515625 80.460938 C 387.023438 74.761719 383.195312 67.304688 379.507812 62.289062 C 376.417969 58.089844 367.535156 49.695312 367.535156 49.695312 C 371.527344 48.984375 380.847656 47.320312 380.847656 47.320312 C 382.550781 45.957031 386.523438 42.777344 386.523438 42.777344 C 387.421875 43.273438 388.769531 43.726562 389.515625 44.429688 C 392.058594 46.828125 393.902344 51.367188 395.089844 54.652344 C 396.171875 57.644531 396.613281 61.921875 397.175781 65.054688 C 398.402344 71.867188 399.023438 81.148438 400.726562 87.859375 C 401.554688 91.113281 404.355469 98.4375 404.355469 98.4375 C 404.375 95.777344 404.515625 92.230469 404.425781 89.570312 C 404.238281 83.917969 403.59375 76.398438 402.90625 70.785156 C 402.222656 65.179688 401.765625 57.53125 399.867188 52.214844 C 398.546875 48.519531 393.464844 40.8125 393.460938 40.8125 C 395.90625 40.195312 399.101562 39.042969 401.605469 38.75 C 405.609375 38.277344 411.078125 38.390625 415.042969 39.121094 C 419.125 39.871094 424.085938 42.648438 428.105469 43.691406 C 430.363281 44.273438 435.753906 45.070312 435.753906 45.070312 Z M 435.753906 45.070312 " fill-opacity="1" fill-rule="evenodd"/><path stroke-linecap="round" transform="matrix(1.29946, 0, 0, 1.299966, -372.960271, -75.103855)" fill="none" stroke-linejoin="round" d="M 589.799784 89.168734 C 589.80279 89.168734 593.71367 95.097373 594.729717 97.939995 C 596.19066 102.029644 596.542369 107.91321 597.068429 112.22522 C 597.597495 116.543241 598.093494 122.327645 598.237785 126.675714 C 598.306924 128.722041 598.198706 131.450477 598.183676 133.496804 C 598.183676 133.496804 596.028333 127.862644 595.391049 125.359574 C 594.080409 120.197181 593.602446 113.057573 592.658544 107.817053 C 592.225672 105.407135 591.885987 102.116786 591.05331 99.815043 C 590.139469 97.287935 588.72061 93.796258 586.763667 91.951258 C 586.189511 91.410379 585.152421 91.061812 584.461028 90.680192 C 584.461028 90.680192 581.403869 93.126168 580.093228 94.174873 C 580.093228 94.174873 572.920777 95.454955 569.848588 96.001844 C 569.848588 96.001844 576.68436 102.459342 579.062151 105.689594 C 581.899868 109.547867 584.845803 115.284194 586.763667 119.668321 C 588.365895 123.328272 589.733651 128.502685 591.008219 132.28884 C 591.008219 132.285835 584.923961 122.823451 582.032134 118.971188 C 578.175364 113.838844 572.674281 107.258145 568.267402 102.588553 C 566.674192 100.899807 564.362535 98.832446 562.691167 97.221827 C 562.691167 97.221827 558.855439 96.804148 557.541793 95.896673 C 556.252194 95.004222 554.598863 93.183261 554.535736 91.614711 C 554.50267 90.761323 555.185044 89.649516 555.810304 89.066568 C 559.736214 85.400608 567.813488 85.382579 573.089117 84.378947 C 576.750493 83.681813 581.70748 83.183002 585.422966 82.936602 C 593.283804 82.413752 603.805001 82.882514 611.677863 82.711235 C 615.393349 82.630104 620.428493 83.095861 624.053797 82.293556 C 627.994737 81.42214 632.69621 78.552474 636.417708 76.992938 C 637.244373 76.650381 639.174261 75.863102 639.174261 75.863102 C 643.127226 75.757931 648.435921 74.922572 652.346801 75.50552 C 655.827814 76.02837 661.121479 76.596294 663.490252 79.201529 C 664.479244 80.286293 665.375049 82.44981 664.981256 83.865111 C 664.142566 86.863987 659.389991 88.690957 656.492152 89.826804 C 649.136332 92.711494 638.125148 91.458457 630.252286 92.158595 C 628.950663 94.39423 627.056848 97.29094 625.91154 99.610711 C 624.426548 102.609587 622.337339 106.651158 621.694043 109.935497 C 620.671984 115.133949 622.953581 122.375723 622.018697 127.589199 C 621.883425 128.35244 621.910479 129.725673 621.20105 130.041186 C 620.599839 130.308621 619.595816 129.716658 619.159938 129.223857 C 617.24508 127.066349 618.339284 122.537987 618.095794 119.662312 C 617.807212 116.260781 617.052692 111.693355 617.443479 108.30084 C 618.011624 103.354798 620.876396 97.200793 622.346357 92.444059 C 622.346357 92.444059 618.197999 91.831063 616.460499 91.383335 C 613.367267 90.58103 609.549575 88.444557 606.408246 87.867619 C 603.357099 87.305705 599.14862 87.218564 596.067412 87.582155 C 594.14053 87.807521 591.681576 88.693962 589.799784 89.168734 M 630.252286 92.158595 L 630.252286 92.158595 M 622.346357 92.444059 L 622.346357 92.444059 " stroke="#8e5f31" stroke-width="1" stroke-opacity="1" stroke-miterlimit="4"/><path fill="#412809" d="M 468.6875 95.042969 C 468.308594 95.417969 467.484375 95.371094 466.96875 95.511719 C 466.96875 95.511719 467.632812 101.546875 466.816406 103.941406 C 465.167969 108.761719 459.644531 113.457031 456.042969 117.058594 C 454.609375 118.492188 452.4375 120.121094 450.894531 121.429688 C 450.894531 121.433594 452.800781 134.636719 454.550781 140.050781 C 456.964844 147.511719 461.292969 157.195312 465.667969 163.703125 C 469.515625 169.421875 475.925781 176.1875 481.175781 180.652344 C 484.003906 183.054688 489.503906 184.402344 491.421875 187.578125 C 491.710938 188.054688 491.824219 188.824219 491.839844 189.378906 C 491.882812 191.082031 491.414062 193.429688 490.59375 194.921875 C 489.269531 197.3125 486.644531 200.714844 483.945312 201.15625 C 480.40625 201.730469 476.183594 197.859375 473.28125 195.75 C 466.71875 190.984375 459.394531 182.71875 454.726562 176.082031 C 449.347656 168.433594 444.203125 156.917969 440.738281 148.234375 C 438.621094 142.925781 436.773438 135.5 435.078125 130.042969 C 435.074219 130.042969 431.527344 130.460938 430.007812 130.640625 C 430.007812 130.640625 421.78125 141.789062 419.425781 147.191406 C 416.914062 152.953125 415.296875 161.289062 414.207031 167.472656 C 412.714844 175.953125 411.664062 187.445312 411.582031 196.058594 C 411.527344 201.617188 411.484375 209.148438 412.800781 214.550781 C 415.140625 224.144531 421.195312 236.167969 426.613281 244.421875 C 428.097656 246.683594 430.671875 249.261719 432.414062 251.332031 C 432.414062 251.332031 433.222656 253.371094 433.117188 254.273438 C 432.871094 256.425781 431.015625 258.984375 429.472656 260.507812 C 428.113281 261.847656 425.828125 263.332031 423.949219 263.679688 C 422.621094 263.925781 420.664062 263.75 419.480469 263.09375 C 410.898438 258.3125 406.585938 244 402.671875 234.984375 C 399.855469 228.503906 397.066406 219.386719 395.96875 212.40625 C 394.34375 202.058594 394.429688 187.910156 395.53125 177.496094 C 396.476562 168.558594 399.058594 156.730469 402.066406 148.265625 C 403.457031 144.339844 406.253906 139.5 408.046875 135.742188 C 408.046875 135.742188 393.769531 134.34375 388.289062 131.789062 C 386.136719 130.789062 383.660156 128.710938 381.925781 127.09375 C 380.378906 125.652344 378.304688 123.621094 377.335938 121.738281 C 376.265625 119.660156 375.265625 116.488281 375.5 114.164062 C 375.664062 112.515625 377.054688 110.625 377.71875 109.113281 C 377.71875 109.113281 375.285156 107.957031 374.65625 107.042969 C 373.085938 104.769531 372.914062 100.683594 373.21875 97.933594 C 373.507812 95.328125 374.644531 91.738281 376.417969 89.804688 C 377.320312 88.820312 379.140625 88.292969 380.308594 87.644531 C 383.832031 90.707031 387.777344 95.96875 392.046875 97.851562 C 401.320312 101.941406 415.8125 101.960938 425.761719 100.039062 C 436.066406 98.050781 448.351562 90.390625 457.292969 84.890625 C 459.121094 83.769531 460.925781 80.753906 463.066406 80.675781 C 465.339844 80.59375 468.410156 82.722656 469.46875 84.734375 C 470.910156 87.480469 470.886719 92.859375 468.6875 95.042969 M 380.308594 87.644531 Z M 380.308594 87.644531 " fill-opacity="1" fill-rule="evenodd"/><path stroke-linecap="round" transform="matrix(1.29946, 0, 0, 1.299966, -372.960271, -75.103855)" fill="none" stroke-linejoin="round" d="M 646.367754 131.246145 C 646.764554 131.137969 647.398832 131.174028 647.690419 130.885559 C 649.382829 129.205828 649.400865 125.0681 648.291631 122.955666 C 647.476989 121.40815 645.114229 119.770487 643.364704 119.83359 C 641.717385 119.893688 640.328587 122.213459 638.921753 123.075861 C 632.040889 127.30674 622.586842 133.19932 614.656865 134.728807 C 607.000439 136.207211 595.84797 136.192186 588.711592 133.046071 C 585.425972 131.597717 582.389855 127.550136 579.678392 125.194306 C 578.779581 125.693117 577.378759 126.098776 576.68436 126.856007 C 575.31961 128.343426 574.444848 131.104915 574.2224 133.109174 C 573.987927 135.224613 574.120194 138.367723 575.328629 140.116567 C 575.812604 140.81971 577.685377 141.709156 577.685377 141.709156 C 577.174347 142.872047 576.104191 144.326411 575.977937 145.594473 C 575.797573 147.38238 576.567124 149.822347 577.390783 151.420946 C 578.136285 152.869301 579.732501 154.431841 580.9229 155.540644 C 582.257589 156.784666 584.163428 158.383265 585.819766 159.152516 C 590.037263 161.117711 601.024399 162.19346 601.024399 162.19346 C 599.644619 165.08416 597.492283 168.807213 596.422127 171.827123 C 594.107463 178.338709 592.12046 187.437503 591.392994 194.31268 C 590.545286 202.323705 590.479153 213.2074 591.729673 221.167342 C 592.574374 226.537072 594.720699 233.550474 596.888065 238.535579 C 599.900134 245.470855 603.21882 256.480755 609.823126 260.158735 C 610.733961 260.663556 612.239996 260.798776 613.262055 260.609468 C 614.707968 260.342033 616.466511 259.200177 617.512619 258.169501 C 618.700011 256.997595 620.127888 255.029396 620.317269 253.373704 C 620.398433 252.679575 619.776179 251.111025 619.776179 251.111025 C 618.435478 249.518436 616.454487 247.535211 615.312185 245.795383 C 611.142785 239.44606 606.483398 230.197022 604.68277 222.817024 C 603.669729 218.661267 603.702795 212.867848 603.74488 208.591896 C 603.808007 201.966124 604.616636 193.125751 605.76495 186.602144 C 606.60364 181.845411 607.848147 175.432985 609.781041 171.000779 C 611.593693 166.845023 617.924448 158.26908 617.924448 158.26908 C 619.093804 158.130855 621.823304 157.809332 621.82631 157.809332 C 623.130938 162.007157 624.552803 167.719444 626.182085 171.803084 C 628.848457 178.482944 632.807434 187.341346 636.946774 193.224912 C 640.539011 198.330212 646.175367 204.68855 651.225542 208.35451 C 653.459042 209.977148 656.708589 212.95499 659.432076 212.513272 C 661.509261 212.173719 663.529331 209.556464 664.548384 207.717474 C 665.179656 206.569608 665.540382 204.763672 665.507316 203.453542 C 665.495292 203.026848 665.408116 202.434886 665.185668 202.06829 C 663.709694 199.625318 659.477167 198.588632 657.300782 196.740628 C 653.260642 193.306044 648.327703 188.101582 645.366738 183.70243 C 641.999954 178.696291 638.669244 171.24718 636.811501 165.507849 C 635.464788 161.343077 633.997832 151.186565 633.997832 151.18356 C 635.185224 150.176923 636.856592 148.923886 637.959815 147.821093 C 640.731399 145.050589 644.981962 141.438716 646.250518 137.730688 C 646.878784 135.888693 646.367754 131.246145 646.367754 131.246145 " stroke="#412809" stroke-width="1" stroke-opacity="1" stroke-miterlimit="4"/><path fill="#83582d" d="M 634.097656 238.6875 C 632.40625 235.355469 630.273438 230.847656 628.453125 227.582031 C 626.652344 224.351562 623.9375 220.222656 622.039062 217.046875 C 622.039062 217.046875 617.285156 222.398438 615.777344 225.046875 C 612.539062 230.746094 609.917969 239.230469 608.367188 245.601562 C 606.523438 253.179688 605.78125 263.625 605.0625 271.394531 C 604.316406 279.375 603.519531 298.066406 603.519531 298.066406 C 606.621094 291.332031 610.589844 282.269531 613.855469 275.613281 C 616.816406 269.578125 620.972656 261.628906 624.214844 255.734375 C 627.066406 250.558594 634.097656 238.691406 634.097656 238.6875 Z M 634.097656 238.6875 " fill-opacity="1" fill-rule="evenodd"/><path stroke-linecap="round" transform="matrix(1.29946, 0, 0, 1.299966, -372.960271, -75.103855)" fill="none" stroke-linejoin="round" d="M 751.450469 287.061474 C 751.450469 287.061474 752.063705 272.683097 752.637862 266.544117 C 753.190976 260.567399 753.762127 252.532336 755.180985 246.702858 C 756.37439 241.80189 758.391454 235.275279 760.883474 230.891151 C 762.043812 228.853839 765.702183 224.737145 765.702183 224.737145 C 767.163126 227.180117 769.252336 230.356281 770.638128 232.841321 C 772.03895 235.353406 773.680257 238.821043 774.981879 241.384211 C 774.981879 241.387216 769.570978 250.516058 767.376556 254.497531 C 764.881529 259.031903 761.683085 265.146845 759.404495 269.789393 C 756.891431 274.909718 753.837278 281.881052 751.450469 287.061474 M 774.981879 241.384211 L 774.981879 241.384211 " stroke="#83582d" stroke-width="1" stroke-opacity="1" stroke-miterlimit="4"/><path stroke-linecap="round" transform="matrix(1.29946, 0, 0, 1.299966, -372.960271, -75.103855)" fill-opacity="1" fill="#83582d" fill-rule="evenodd" stroke-linejoin="round" d="M 770.722297 386.063435 C 771.849568 386.003337 773.481857 386.381953 774.48588 385.862107 C 776.731404 384.690202 777.723403 380.916066 779.169316 378.836685 C 781.688391 375.209788 784.724508 370.080449 787.81774 366.931329 C 790.405955 364.299049 794.76173 361.835043 797.60546 359.482218 C 797.60546 359.482218 796.664564 354.863709 796.267765 352.886495 C 795.591402 349.527033 794.683573 345.052758 794.034265 341.690291 C 794.034265 341.690291 792.239649 348.144785 791.280717 350.849182 C 789.870877 354.806616 787.784674 360.026102 785.884846 363.776199 C 783.362764 368.749285 779.521024 375.158705 776.217368 379.651009 C 774.717346 381.694331 770.722297 386.063435 770.722297 386.063435 Z M 770.722297 386.063435 " stroke="#83582d" stroke-width="1" stroke-opacity="1" stroke-miterlimit="4"/><path fill="#83582d" d="M 688.773438 468.027344 C 687.78125 466.8125 686.570312 465.097656 685.464844 463.988281 C 683.59375 462.113281 680.277344 460.488281 678.59375 458.441406 C 677.574219 457.199219 676.773438 455.160156 676.007812 453.746094 C 676.007812 453.746094 674.558594 456.480469 674.023438 457.699219 C 670.886719 464.855469 668.007812 474.910156 665.210938 482.210938 C 661.101562 492.929688 656.417969 507.664062 650.71875 517.632812 C 647.902344 522.558594 641.535156 527.570312 639.515625 532.875 C 639.222656 533.640625 639.066406 535.566406 639.066406 535.566406 C 643.769531 531.441406 650.460938 526.371094 654.753906 521.816406 C 661.597656 514.554688 669.636719 503.828125 674.921875 495.363281 C 678.355469 489.859375 681.839844 481.902344 684.757812 476.109375 C 685.972656 473.691406 688.773438 468.027344 688.773438 468.027344 Z M 688.773438 468.027344 " fill-opacity="1" fill-rule="evenodd"/><path stroke-linecap="round" transform="matrix(1.29946, 0, 0, 1.299966, -372.960271, -75.103855)" fill="none" stroke-linejoin="round" d="M 778.805583 469.758509 C 778.805583 469.758509 778.925825 468.2771 779.151279 467.688143 C 780.705411 463.607508 785.605283 459.75224 787.772649 455.96308 C 792.158486 448.294612 795.762747 436.960184 798.925119 428.714779 C 801.077455 423.098648 803.292919 415.364073 805.706782 409.859122 C 806.118612 408.921598 807.233859 406.818178 807.233859 406.818178 C 807.823046 407.905947 808.439287 409.474497 809.223868 410.430051 C 810.519478 412.004611 813.07162 413.254643 814.511521 414.696988 C 815.362235 415.550375 816.294113 416.86952 817.057651 417.804039 C 817.057651 417.804039 814.902309 422.161123 813.967425 424.021147 C 811.721901 428.477393 809.040499 434.598344 806.398175 438.832228 C 802.330981 445.343814 796.144516 453.59523 790.877906 459.181312 C 787.57425 462.685008 782.424875 466.58535 778.805583 469.758509 M 817.057651 417.804039 L 817.057651 417.804039 " stroke="#83582d" stroke-width="1" stroke-opacity="1" stroke-miterlimit="4"/><path fill="#83582d" d="M 698.546875 573.507812 C 699.210938 576.792969 700.71875 581.019531 701.644531 584.238281 C 701.644531 584.238281 697.566406 588.367188 695.621094 589.910156 C 690.882812 593.667969 683.554688 597.238281 678.652344 600.777344 C 675.066406 603.367188 670.179688 606.78125 667.160156 610.019531 C 664.398438 612.980469 661.476562 617.59375 659.425781 621.085938 C 657.644531 624.125 655.242188 628.25 654.277344 631.632812 C 652.402344 638.210938 653.238281 647.566406 652.519531 654.367188 C 652.25 656.914062 652.183594 660.382812 651.421875 662.824219 C 650.875 664.582031 650.503906 668.082031 648.679688 668.316406 C 647.796875 668.429688 646.914062 667.15625 646.371094 666.449219 C 645.546875 665.371094 644.914062 663.601562 644.617188 662.273438 C 643.035156 655.300781 644 645.542969 644.835938 638.441406 C 645.40625 633.585938 646.714844 627.128906 648.347656 622.519531 C 651.214844 614.425781 656.613281 604.15625 661.519531 597.109375 C 665.386719 591.554688 672.089844 585.375 676.597656 580.328125 C 681.140625 575.246094 687.082031 568.367188 691.683594 563.34375 C 693.550781 561.304688 697.996094 556.632812 697.996094 556.632812 C 697.898438 559.714844 697.5625 563.832031 697.722656 566.910156 C 697.828125 568.902344 698.15625 571.550781 698.546875 573.507812 Z M 698.546875 573.507812 " fill-opacity="1" fill-rule="evenodd"/><path stroke-linecap="round" transform="matrix(1.29946, 0, 0, 1.299966, -372.960271, -75.103855)" fill="none" stroke-linejoin="round" d="M 826.962607 507.199381 C 826.250172 504.723356 825.089834 501.47207 824.578804 498.944961 C 824.278199 497.439513 824.02569 495.402201 823.944526 493.869709 C 823.821278 491.50186 824.079799 488.33471 824.15495 485.963856 C 824.15495 485.963856 820.734058 489.557699 819.297163 491.126249 C 815.756029 494.990532 811.183817 500.282135 807.687773 504.191491 C 804.218784 508.073803 799.060391 512.827532 796.084395 517.100479 C 792.308788 522.521292 788.154418 530.421136 785.947973 536.647258 C 784.691441 540.193023 783.684413 545.160099 783.245528 548.895171 C 782.602232 554.358053 781.859736 561.864257 783.077189 567.227977 C 783.305649 568.249639 783.792631 569.610852 784.426908 570.4402 C 784.84475 570.984084 785.524119 571.963677 786.203488 571.876535 C 787.607316 571.696242 787.892892 569.003865 788.313739 567.651666 C 788.89992 565.773613 788.951023 563.105275 789.158441 561.146089 C 789.711556 555.914584 789.06826 548.717883 790.511167 543.657656 C 791.253663 541.055425 793.102387 537.882266 794.473149 535.544465 C 796.051329 532.858098 798.299859 529.309328 800.425141 527.031625 C 802.748822 524.540575 806.509399 521.914305 809.268959 519.922066 C 813.04156 517.19964 818.680922 514.453175 822.327268 511.562475 C 823.824284 510.375545 826.962607 507.199381 826.962607 507.199381 " stroke="#83582d" stroke-width="1" stroke-opacity="1" stroke-miterlimit="4"/><path fill="#83582d" d="M 549.667969 710.476562 C 549.507812 709.53125 550.167969 708.296875 550.386719 707.363281 C 550.386719 707.363281 551.773438 706.683594 552.417969 706.644531 C 555.691406 706.449219 559.695312 709.015625 562.828125 709.996094 C 569.445312 712.070312 578.089844 715.710938 584.957031 716.699219 C 595.222656 718.175781 609.171875 716.574219 619.527344 715.980469 C 624.871094 715.671875 632.097656 715.664062 637.292969 714.378906 C 643.480469 712.851562 651.113281 708.859375 656.859375 706.101562 C 660.222656 704.484375 664.476562 701.875 667.832031 700.242188 C 669.003906 699.667969 671.792969 698.457031 671.792969 698.457031 C 672.125 699.386719 672.335938 700.730469 672.859375 701.566406 C 674.273438 703.828125 677.570312 705.636719 679.449219 707.527344 C 680.945312 709.035156 684.640625 710.722656 684.183594 712.796875 C 683.476562 716.011719 676.785156 714.851562 673.601562 715.679688 C 666.925781 717.417969 658.058594 719.933594 651.269531 721.183594 C 643.003906 722.707031 631.835938 723.933594 623.449219 724.550781 C 613.679688 725.269531 600.585938 725.910156 590.804688 725.371094 C 583.761719 724.984375 574.257812 724.308594 567.492188 722.324219 C 563.101562 721.03125 557.089844 718.960938 553.613281 715.980469 C 552.070312 714.65625 550 712.480469 549.667969 710.476562 Z M 549.667969 710.476562 " fill-opacity="1" fill-rule="evenodd"/><path stroke-linecap="round" transform="matrix(1.29946, 0, 0, 1.299966, -372.960271, -75.103855)" fill="none" stroke-linejoin="round" d="M 710.56209 601.91337 C 710.39375 602.631538 709.885727 603.581081 710.008975 604.308264 C 710.26449 605.84977 711.8577 607.523491 713.045092 608.542147 C 715.720482 610.834875 720.346803 612.427464 723.725611 613.422081 C 728.932101 614.948563 736.245836 615.468408 741.665756 615.765892 C 749.192921 616.180566 759.269222 615.687765 766.787369 615.134866 C 773.241372 614.660094 781.835688 613.71656 788.196503 612.544655 C 793.421029 611.583091 800.244777 609.647945 805.382128 608.310771 C 807.832064 607.673735 812.981439 608.566186 813.525535 606.093166 C 813.877243 604.497572 811.033514 603.199461 809.882194 602.039575 C 808.436281 600.585211 805.89917 599.193949 804.810977 597.45412 C 804.408166 596.811075 804.245839 595.777394 803.990324 595.062231 C 803.990324 595.062231 801.843999 595.993746 800.942183 596.435464 C 798.35998 597.691506 795.086385 599.698769 792.49817 600.942792 C 788.076261 603.064241 782.202427 606.135234 777.440833 607.310144 C 773.442778 608.298752 767.881574 608.304761 763.769289 608.542147 C 755.800233 608.99889 745.065605 610.230893 737.165689 609.095046 C 731.881042 608.33481 725.228639 605.534257 720.136379 603.938663 C 717.725522 603.184437 714.644314 601.210227 712.125239 601.360471 C 711.62924 601.39052 710.56209 601.91337 710.56209 601.91337 " stroke="#83582d" stroke-width="1" stroke-opacity="1" stroke-miterlimit="4"/><path fill="#83582d" d="M 169.746094 257.8125 C 167.761719 262.34375 165.285156 268.457031 163.371094 273.019531 C 163.375 273.023438 174.222656 281.898438 179.144531 285.335938 C 191.332031 293.851562 208.65625 303.570312 221.464844 311.121094 C 226.164062 313.890625 232.636719 317.238281 237.234375 320.167969 C 242.898438 323.765625 249.515625 330.046875 255.511719 333.058594 C 258.851562 334.738281 263.566406 336.859375 267.296875 337.132812 C 268.300781 337.203125 270.121094 337.554688 270.636719 336.683594 C 271.425781 335.347656 269.101562 333.375 268.183594 332.121094 C 261.789062 323.359375 249.769531 314.757812 241.800781 307.398438 C 234.039062 300.226562 223.371094 291.003906 215.753906 283.679688 C 210.648438 278.765625 203.921875 272.121094 199.152344 266.882812 C 194.957031 262.273438 189.757812 255.789062 185.800781 250.976562 C 183.300781 247.9375 177.554688 240.765625 177.554688 240.765625 C 175.316406 245.925781 172.003906 252.660156 169.746094 257.8125 Z M 169.746094 257.8125 " fill-opacity="1" fill-rule="evenodd"/><path stroke-linecap="round" transform="matrix(1.29946, 0, 0, 1.299966, -372.960271, -75.103855)" fill="none" stroke-linejoin="round" d="M 412.734042 267.794149 C 414.20701 264.284443 416.112849 259.581797 417.639926 256.09613 C 419.377427 252.132686 421.926562 246.952263 423.649033 242.98281 C 423.649033 242.98281 428.070942 248.499779 429.994818 250.83758 C 433.039953 254.539599 437.041014 259.527709 440.269519 263.073474 C 443.939914 267.103025 449.116343 272.214335 453.045259 275.994481 C 458.907069 281.628641 467.116609 288.723176 473.089643 294.240146 C 479.221998 299.90135 488.471634 306.518107 493.392548 313.258065 C 494.098972 314.222634 495.887575 315.740101 495.280352 316.767772 C 494.883552 317.437861 493.48273 317.167421 492.710173 317.113333 C 489.83939 316.902991 486.211079 315.271339 483.640901 313.979238 C 479.026605 311.662471 473.934345 306.830616 469.575563 304.063116 C 466.037435 301.809452 461.056399 299.234265 457.440113 297.103801 C 447.583254 291.295358 434.251394 283.819203 424.872498 277.268553 C 421.084867 274.624253 412.737048 267.797154 412.734042 267.794149 " stroke="#83582d" stroke-width="1" stroke-opacity="1" stroke-miterlimit="4"/><path stroke-linecap="round" transform="matrix(1.29946, 0, 0, 1.299966, -372.960271, -75.103855)" fill-opacity="1" fill="#83582d" fill-rule="evenodd" stroke-linejoin="round" d="M 373.23446 426.142597 C 377.620297 430.667954 383.178495 436.999248 387.852913 441.227121 C 397.911178 450.32291 410.942432 464.010163 423.585906 468.911131 C 425.067891 469.485064 427.605003 470.786179 428.813438 469.758509 C 431.350549 467.597996 427.683161 462.014919 426.552883 458.880823 C 425.446655 455.81584 423.444621 451.870426 421.469642 449.27721 C 418.340337 445.175541 412.220006 441.518595 408.757029 437.696381 C 400.361114 428.4203 391.23172 414.318372 384.462081 403.795264 C 381.912945 399.834825 379.114307 394.182635 376.526092 390.246235 C 376.526092 390.246235 376.736516 395.49577 376.910867 397.740419 C 377.139328 400.691217 378.122308 404.597568 377.935933 407.55137 C 377.650357 412.085743 375.398821 417.846108 374.265538 422.248265 C 373.961926 423.417165 373.23446 426.142597 373.23446 426.142597 Z M 373.23446 426.142597 " stroke="#83582d" stroke-width="1" stroke-opacity="1" stroke-miterlimit="4"/><path stroke-linecap="round" transform="matrix(1.29946, 0, 0, 1.299966, -372.960271, -75.103855)" fill-opacity="1" fill="#83582d" fill-rule="evenodd" stroke-linejoin="round" d="M 376.856758 502.181222 C 379.150379 504.185481 382.045212 507.067166 384.504166 508.870097 C 388.601421 511.871978 394.568443 515.150308 399.053479 517.539192 C 404.749956 520.574126 412.679933 523.954622 418.526713 526.689068 C 423.207143 528.876625 429.495813 531.698212 434.143176 533.957886 C 439.521011 536.572136 446.245559 541.079464 451.914982 542.978552 C 453.399973 543.477363 455.87997 545.121035 457.03129 544.054301 C 457.608452 543.519431 457.401035 542.158218 457.097423 541.431036 C 456.595411 540.226077 454.936068 539.240475 453.799779 538.603439 C 452.122399 537.66291 449.47707 537.383455 447.673436 536.719376 C 442.773564 534.916444 436.37367 532.118896 431.771397 529.65489 C 425.873515 526.49976 418.286228 521.731007 412.986551 517.653378 C 405.994463 512.271628 397.553457 503.996173 391.424108 497.64685 C 386.84889 492.905141 381.522158 485.873709 377.010067 481.071902 C 377.010067 481.071902 377.38883 487.538416 377.385824 490.311925 C 377.382818 493.875719 376.856758 502.178218 376.856758 502.181222 Z M 376.856758 502.181222 " stroke="#83582d" stroke-width="1" stroke-opacity="1" stroke-miterlimit="4"/><path stroke-linecap="round" transform="matrix(1.29946, 0, 0, 1.299966, -372.960271, -75.103855)" fill-opacity="1" fill="#83582d" fill-rule="evenodd" stroke-linejoin="round" d="M 387.708622 613.890843 C 388.775772 614.804329 390.03531 616.255688 391.264787 616.931787 C 395.686696 619.36875 402.624674 620.098937 407.584667 621.036461 C 416.437503 622.713187 428.395596 624.236664 437.395729 624.654343 C 445.981026 625.050988 458.371991 627.770409 466.034429 623.873073 C 468.177747 622.782299 471.866178 620.387406 471.505451 618.007536 C 471.337112 616.892724 469.650714 615.988253 468.574546 615.660721 C 467.104585 615.219003 465.021388 616.111454 463.491305 616.246674 C 456.529278 616.880704 447.207497 618.043595 440.23044 617.616901 C 432.399663 617.13612 422.263241 614.125224 414.525652 612.827114 C 409.039599 611.907619 401.668748 611.027188 396.188707 610.074639 C 394.998309 609.867302 393.396081 609.64494 392.232737 609.314403 C 392.232737 609.314403 389.62348 611.081276 388.760742 612.102937 C 388.360936 612.577708 387.711628 613.890843 387.708622 613.890843 Z M 387.708622 613.890843 " stroke="#83582d" stroke-width="1" stroke-opacity="1" stroke-miterlimit="4"/></svg>